<svg width="651" height="109" viewBox="0 0 651 109" fill="none" xmlns="http://www.w3.org/2000/svg">
<path fill-rule="evenodd" clip-rule="evenodd" d="M165 30H42C35.3726 30 30 35.3726 30 42V67C30 73.6274 35.3726 79 42 79H165C171.627 79 177 73.6274 177 67V42C177 35.3726 171.627 30 165 30ZM42 0C18.804 0 0 18.804 0 42V67C0 90.196 18.804 109 42 109H165C188.196 109 207 90.196 207 67V42C207 18.804 188.196 0 165 0H42Z" fill="white"/>
<path d="M605.33 61.7272V101H580.239V7.90906H604.421V44.4545H605.148C606.724 40 609.345 36.5303 613.011 34.0454C616.678 31.5303 621.087 30.2727 626.239 30.2727C631.178 30.2727 635.466 31.3939 639.102 33.6363C642.769 35.8788 645.602 38.9697 647.602 42.9091C649.633 46.8485 650.633 51.3636 650.602 56.4545V101H625.511V61.7272C625.542 58.2727 624.678 55.5606 622.921 53.5909C621.193 51.6212 618.724 50.6363 615.511 50.6363C613.481 50.6363 611.693 51.0909 610.148 52C608.633 52.8788 607.451 54.1515 606.602 55.8181C605.784 57.4545 605.36 59.4242 605.33 61.7272Z" fill="white"/>
<path d="M568.5 31.1818V49.3636H522.5V31.1818H568.5ZM531.409 14.4545H556.5V78.5454C556.5 79.5151 556.667 80.3333 557 81C557.333 81.6363 557.849 82.1212 558.545 82.4545C559.242 82.7575 560.136 82.9091 561.227 82.9091C561.985 82.9091 562.864 82.8182 563.864 82.6363C564.894 82.4545 565.652 82.303 566.136 82.1818L569.773 99.8182C568.652 100.151 567.045 100.561 564.955 101.045C562.894 101.53 560.439 101.848 557.591 102C551.833 102.303 547 101.712 543.091 100.227C539.182 98.7121 536.242 96.3333 534.273 93.0909C532.303 89.8485 531.348 85.7878 531.409 80.9091V14.4545Z" fill="white"/>
<path d="M470.693 102.091C466.239 102.091 462.299 101.364 458.875 99.9091C455.481 98.4242 452.814 96.1818 450.875 93.1818C448.936 90.1818 447.966 86.3636 447.966 81.7272C447.966 77.9091 448.617 74.6515 449.92 71.9545C451.223 69.2272 453.042 67 455.375 65.2727C457.708 63.5454 460.42 62.2272 463.511 61.3182C466.632 60.4091 469.996 59.8182 473.602 59.5454C477.511 59.2424 480.648 58.8788 483.011 58.4545C485.405 58 487.132 57.3788 488.193 56.5909C489.254 55.7727 489.784 54.6969 489.784 53.3636V53.1818C489.784 51.3636 489.087 49.9697 487.693 49C486.299 48.0303 484.511 47.5454 482.329 47.5454C479.936 47.5454 477.981 48.0757 476.466 49.1363C474.981 50.1666 474.087 51.7576 473.784 53.9091H450.693C450.996 49.6666 452.345 45.7576 454.739 42.1818C457.163 38.5757 460.693 35.6969 465.329 33.5454C469.966 31.3636 475.754 30.2727 482.693 30.2727C487.693 30.2727 492.178 30.8636 496.148 32.0454C500.117 33.1969 503.496 34.8182 506.284 36.9091C509.072 38.9697 511.193 41.3939 512.648 44.1818C514.132 46.9394 514.875 49.9394 514.875 53.1818V101H491.42V91.1818H490.875C489.481 93.7879 487.784 95.8939 485.784 97.5C483.814 99.106 481.557 100.273 479.011 101C476.496 101.727 473.723 102.091 470.693 102.091ZM478.875 86.2727C480.784 86.2727 482.572 85.8788 484.239 85.0909C485.936 84.303 487.314 83.1666 488.375 81.6818C489.436 80.1969 489.966 78.3939 489.966 76.2727V70.4545C489.299 70.7272 488.587 70.9848 487.829 71.2272C487.102 71.4697 486.314 71.6969 485.466 71.9091C484.648 72.1212 483.769 72.3182 482.829 72.5C481.92 72.6818 480.966 72.8485 479.966 73C478.026 73.303 476.436 73.803 475.193 74.5C473.981 75.1666 473.072 76 472.466 77C471.89 77.9697 471.602 79.0606 471.602 80.2727C471.602 82.2121 472.284 83.6969 473.648 84.7272C475.011 85.7576 476.754 86.2727 478.875 86.2727Z" fill="white"/>
<path d="M406.818 102.273C399.364 102.273 392.94 100.848 387.546 98C382.182 95.1212 378.046 91 375.137 85.6363C372.258 80.2424 370.818 73.7879 370.818 66.2727C370.818 59.0606 372.273 52.7575 375.182 47.3636C378.091 41.9697 382.197 37.7727 387.5 34.7727C392.803 31.7727 399.061 30.2727 406.273 30.2727C411.546 30.2727 416.318 31.0909 420.591 32.7272C424.864 34.3636 428.515 36.7424 431.546 39.8636C434.576 42.9545 436.909 46.7121 438.546 51.1363C440.182 55.5606 441 60.5454 441 66.0909V71.9091H378.637V58.0909H417.909C417.879 56.0909 417.364 54.3333 416.364 52.8182C415.394 51.2727 414.076 50.0757 412.409 49.2272C410.773 48.3485 408.909 47.9091 406.818 47.9091C404.788 47.9091 402.924 48.3485 401.227 49.2272C399.53 50.0757 398.167 51.2575 397.137 52.7727C396.137 54.2878 395.606 56.0606 395.546 58.0909V73C395.546 75.2424 396.015 77.2424 396.955 79C397.894 80.7576 399.243 82.1363 401 83.1363C402.758 84.1363 404.879 84.6363 407.364 84.6363C409.091 84.6363 410.667 84.3939 412.091 83.9091C413.546 83.4242 414.788 82.7273 415.818 81.8182C416.849 80.8788 417.606 79.7576 418.091 78.4545H441C440.212 83.303 438.349 87.5151 435.409 91.0909C432.47 94.6363 428.576 97.3939 423.727 99.3636C418.909 101.303 413.273 102.273 406.818 102.273Z" fill="white"/>
<path d="M321.864 101V31.1818H346.227V44.4545H346.955C348.227 39.5454 350.243 35.9545 353 33.6818C355.788 31.4091 359.046 30.2727 362.773 30.2727C363.864 30.2727 364.94 30.3636 366 30.5454C367.091 30.6969 368.136 30.9242 369.136 31.2272V52.6363C367.894 52.2121 366.364 51.8939 364.546 51.6818C362.727 51.4697 361.167 51.3636 359.864 51.3636C357.409 51.3636 355.197 51.9242 353.227 53.0454C351.288 54.1363 349.758 55.6818 348.636 57.6818C347.515 59.6515 346.955 61.9697 346.955 64.6363V101H321.864Z" fill="white"/>
<path d="M239 101V7.90906H264.091V43.3636H264.455C265.364 41 266.697 38.8333 268.455 36.8636C270.212 34.8636 272.394 33.2727 275 32.0909C277.606 30.8788 280.636 30.2727 284.091 30.2727C288.697 30.2727 293.076 31.5 297.227 33.9545C301.409 36.4091 304.803 40.2727 307.409 45.5454C310.045 50.8182 311.364 57.6666 311.364 66.0909C311.364 74.1515 310.106 80.8333 307.591 86.1363C305.106 91.4394 301.773 95.3939 297.591 98C293.439 100.606 288.879 101.909 283.909 101.909C280.636 101.909 277.712 101.379 275.136 100.318C272.591 99.2272 270.409 97.7575 268.591 95.9091C266.803 94.0303 265.424 91.9091 264.455 89.5454H263.909V101H239ZM263.545 66.0909C263.545 69.4848 263.985 72.4242 264.864 74.9091C265.773 77.3636 267.045 79.2727 268.682 80.6363C270.348 81.9697 272.333 82.6363 274.636 82.6363C276.939 82.6363 278.894 81.9848 280.5 80.6818C282.136 79.3485 283.379 77.4545 284.227 75C285.106 72.5151 285.545 69.5454 285.545 66.0909C285.545 62.6363 285.106 59.6818 284.227 57.2272C283.379 54.7424 282.136 52.8485 280.5 51.5454C278.894 50.2121 276.939 49.5454 274.636 49.5454C272.333 49.5454 270.348 50.2121 268.682 51.5454C267.045 52.8485 265.773 54.7424 264.864 57.2272C263.985 59.6818 263.545 62.6363 263.545 66.0909Z" fill="white"/>
</svg>
